#N canvas 0 23 1440 855 10;
#X obj 44 6 inlet;
#X text 627 444 FX 3;
#X text 431 444 FX 2;
#X obj 70 762 outlet~;
#X obj 416 763 outlet~;
#X obj 607 763 outlet~;
#X obj 747 763 outlet~;
#X obj 70 282 *~ 0;
#X obj 70 261 r~ preFx;
#X text 78 6 Gate Selector;
#X obj 416 283 *~ 0;
#X obj 416 262 r~ preFx;
#X obj 539 283 *~ 0;
#X obj 539 262 r~ preFx;
#X obj 674 283 *~ 0;
#X obj 674 262 r~ preFx;
#X obj 70 414 fx.megaverb;
#X msg 85 308 127;
#X text 765 444 FX User;
#X obj 674 304 fx.userThree;
#X msg 110 334 90;
#X msg 130 363 60;
#X obj 70 435 +~;
#X obj 88 544 expr ($f1 + $f2) / 2;
#X floatatom 88 497 5 0 0 0 - - -;
#X floatatom 173 497 5 0 0 0 - - -;
#X obj 88 570 clip 0 1;
#X obj 173 518 t b f;
#X obj 101 519 f;
#X obj 70 701 *~;
#X obj 87 455 r lPalmY;
#X obj 170 456 r rPalmY;
#X obj 134 264 r fxIntensity;
#X obj 134 285 sel 0 1 2;
#X obj 87 476 u.invert;
#X obj 170 477 u.invert;
#X obj 44 51 u.audioGate5 ___________________;
#X obj 88 591 - 0.1;
#X connect 0 0 36 0;
#X connect 7 0 16 0;
#X connect 8 0 7 0;
#X connect 11 0 10 0;
#X connect 13 0 12 0;
#X connect 14 0 19 0;
#X connect 15 0 14 0;
#X connect 16 0 22 0;
#X connect 16 1 22 1;
#X connect 17 0 16 1;
#X connect 17 0 16 2;
#X connect 17 0 16 3;
#X connect 17 0 16 4;
#X connect 19 0 6 0;
#X connect 20 0 16 1;
#X connect 20 0 16 2;
#X connect 20 0 16 3;
#X connect 20 0 16 4;
#X connect 21 0 16 4;
#X connect 21 0 16 3;
#X connect 21 0 16 2;
#X connect 21 0 16 1;
#X connect 22 0 29 0;
#X connect 23 0 26 0;
#X connect 24 0 28 0;
#X connect 25 0 27 0;
#X connect 26 0 37 0;
#X connect 27 0 28 0;
#X connect 27 1 23 1;
#X connect 28 0 23 0;
#X connect 29 0 3 0;
#X connect 30 0 34 0;
#X connect 31 0 35 0;
#X connect 32 0 33 0;
#X connect 33 0 21 0;
#X connect 33 1 20 0;
#X connect 33 3 17 0;
#X connect 34 0 24 0;
#X connect 35 0 25 0;
#X connect 36 1 7 1;
#X connect 36 2 10 1;
#X connect 36 3 12 1;
#X connect 36 4 14 1;
#X connect 37 0 29 1;
