#N canvas -9 -9 1920 976 10;
#X obj 44 6 inlet;
#X text 527 444 FX 3;
#X text 331 444 FX 2;
#X obj 71 492 outlet~;
#X obj 324 484 outlet~;
#X obj 464 484 outlet~;
#X obj 573 484 outlet~;
#X obj 44 51 u.audioGate5 ___________________;
#X text 78 6 Gate Selector;
#X obj 70 142 *~ 0;
#X obj 40 121 r~ preFx;
#X obj 309 283 *~ 0;
#X obj 309 262 r~ preFx;
#X obj 444 283 *~ 0;
#X obj 444 262 r~ preFx;
#X obj 573 283 *~ 0;
#X obj 573 262 r~ preFx;
#X obj 71 281 fx.pitchShifter;
#X obj 114 259 r bonk;
#X text 645 334 FX User;
#X obj 573 334 fx.userOne;
#X obj 20 325 fx.pitchShifter;
#X obj 63 303 r bonk;
#X obj 71 376 +~;
#X obj 689 44 r rPalmX;
#X text 429 43 These stay until normalise issue is solved;
#X obj 689 65 / 1000;
#X obj 771 65 / 1000;
#X obj 689 86 s rPalmXNorm;
#X obj 771 86 s lPalmXNorm;
#X obj 771 44 r lPalmX;
#X obj 158 259 r rPalmXNorm;
#X obj 107 303 r lPalmXNorm;
#X connect 0 0 7 0;
#X connect 7 1 9 1;
#X connect 7 2 11 1;
#X connect 7 3 13 1;
#X connect 7 4 15 1;
#X connect 9 0 17 0;
#X connect 9 0 21 0;
#X connect 10 0 9 0;
#X connect 12 0 11 0;
#X connect 14 0 13 0;
#X connect 15 0 20 0;
#X connect 16 0 15 0;
#X connect 17 0 23 1;
#X connect 18 0 17 1;
#X connect 20 0 6 0;
#X connect 21 0 23 0;
#X connect 22 0 21 1;
#X connect 23 0 3 0;
#X connect 24 0 26 0;
#X connect 26 0 28 0;
#X connect 27 0 29 0;
#X connect 30 0 27 0;
#X connect 31 0 17 2;
#X connect 32 0 21 2;
