#N canvas 0 23 1440 855 10;
#X obj 44 6 inlet;
#X text 477 444 FX 3;
#X text 281 444 FX 2;
#X obj 266 763 outlet~;
#X obj 457 763 outlet~;
#X obj 597 763 outlet~;
#X obj 777 763 outlet~;
#X obj 23 283 *~ 0;
#X obj 44 51 u.audioGate5 ___________________;
#X text 78 6 Gate Selector;
#X obj 266 283 *~ 0;
#X obj 266 262 r~ preFx;
#X obj 389 283 *~ 0;
#X obj 389 262 r~ preFx;
#X obj 776 283 *~ 0;
#X obj 776 262 r~ preFx;
#X obj 24 255 readsf~;
#X msg 37 219 1;
#X msg 36 173 stop;
#X msg 24 152 open TestFile.wav;
#X obj 23 722 *~;
#X msg 41 675 \$1 10;
#X obj 41 697 vline~;
#X obj 41 417 expr ($f1 + $f2) / 2;
#X floatatom 41 370 10 0 0 0 - - -;
#X floatatom 126 370 10 0 0 0 - - -;
#X obj 126 391 t b f;
#X obj 41 392 f;
#X obj 41 446 clip 0 1;
#X text 846 364 FX User;
#X obj 778 368 fx.userTwo;
#X obj 465 288 *~ 0;
#X obj 465 267 r~ preFx;
#X obj 24 96 r ldbng;
#X obj 120 202 del 1000;
#X obj 126 307 r rPalmY;
#X obj 41 307 r lPalmY;
#X obj 126 327 u.reMap;
#X obj 40 327 u.reMap;
#X obj 188 309 r fxIntensity;
#X obj 80 255 t b;
#X obj 24 123 t b b;
#X obj 41 348 u.invert;
#X obj 126 348 u.invert;
#X connect 0 0 8 0;
#X connect 7 0 20 0;
#X connect 8 1 7 1;
#X connect 8 2 10 1;
#X connect 8 3 12 1;
#X connect 8 4 31 1;
#X connect 11 0 10 0;
#X connect 13 0 12 0;
#X connect 14 0 30 0;
#X connect 15 0 14 0;
#X connect 16 0 7 0;
#X connect 16 1 40 0;
#X connect 17 0 16 0;
#X connect 18 0 16 0;
#X connect 19 0 16 0;
#X connect 20 0 3 0;
#X connect 21 0 22 0;
#X connect 22 0 20 1;
#X connect 23 0 28 0;
#X connect 24 0 27 0;
#X connect 25 0 26 0;
#X connect 26 0 27 0;
#X connect 26 1 23 1;
#X connect 27 0 23 0;
#X connect 28 0 21 0;
#X connect 30 0 6 0;
#X connect 32 0 31 0;
#X connect 33 0 41 0;
#X connect 34 0 17 0;
#X connect 35 0 37 0;
#X connect 36 0 38 0;
#X connect 37 0 43 0;
#X connect 38 0 42 0;
#X connect 39 0 38 1;
#X connect 39 0 37 1;
#X connect 40 0 41 0;
#X connect 41 0 34 0;
#X connect 41 1 19 0;
#X connect 42 0 24 0;
#X connect 43 0 25 0;
