#N canvas -1851 -157 986 601 10;
#X obj 44 6 inlet;
#X text 527 444 FX 3;
#X text 331 444 FX 2;
#X obj 71 492 outlet~;
#X obj 324 484 outlet~;
#X obj 464 484 outlet~;
#X obj 573 484 outlet~;
#X obj 44 51 u.audioGate5 ___________________;
#X text 78 6 Gate Selector;
#X obj 70 142 *~ 0;
#X obj 40 121 r~ preFx;
#X obj 309 283 *~ 0;
#X obj 309 262 r~ preFx;
#X obj 444 283 *~ 0;
#X obj 444 262 r~ preFx;
#X obj 573 283 *~ 0;
#X obj 573 262 r~ preFx;
#X obj 71 281 fx.pitchShifter;
#X obj 114 259 r bonk;
#X text 645 334 FX User;
#X obj 573 334 fx.userOne;
#X obj 158 259 r rPalmX;
#X obj 20 325 fx.pitchShifter;
#X obj 63 303 r bonk;
#X obj 107 303 r lPalmX;
#X obj 71 376 +~;
#X connect 0 0 7 0;
#X connect 7 1 9 1;
#X connect 7 2 11 1;
#X connect 7 3 13 1;
#X connect 7 4 15 1;
#X connect 9 0 17 0;
#X connect 9 0 22 0;
#X connect 10 0 9 0;
#X connect 12 0 11 0;
#X connect 14 0 13 0;
#X connect 15 0 20 0;
#X connect 16 0 15 0;
#X connect 17 0 25 1;
#X connect 18 0 17 1;
#X connect 20 0 6 0;
#X connect 21 0 17 2;
#X connect 22 0 25 0;
#X connect 23 0 22 1;
#X connect 24 0 22 2;
#X connect 25 0 3 0;
