#N canvas -9 -9 1920 976 10;
#X obj 44 6 inlet;
#X text 627 444 FX 3;
#X text 431 444 FX 2;
#X obj 70 762 outlet~;
#X obj 416 763 outlet~;
#X obj 607 763 outlet~;
#X obj 747 763 outlet~;
#X obj 70 282 *~ 0;
#X obj 70 261 r~ preFx;
#X text 78 6 Gate Selector;
#X obj 416 283 *~ 0;
#X obj 416 262 r~ preFx;
#X obj 539 283 *~ 0;
#X obj 539 262 r~ preFx;
#X obj 674 283 *~ 0;
#X obj 674 262 r~ preFx;
#X obj 70 414 fx.megaverb;
#X msg 85 308 127;
#X text 765 444 FX User;
#X obj 674 304 fx.userThree;
#X msg 110 334 90;
#X msg 130 363 60;
#X obj 70 435 +~;
#X obj 70 701 *~;
#X obj 134 264 r fxIntensity;
#X obj 134 285 sel 0 1 2;
#X obj 44 51 u.audioGate5 ___________________;
#X msg 85 637 \$1 10;
#X obj 85 659 vline~;
#X text 429 43 These stay until normalise issue is solved;
#X obj 689 65 / 1000;
#X obj 771 65 / 1000;
#X obj 689 44 r lPalmY;
#X obj 771 44 r rPalmY;
#X obj 771 86 s rPalmYNorm;
#X obj 689 86 s lPalmYNorm;
#X obj 85 576 expr ($f1 + $f2) / 2;
#X floatatom 170 529 10 0 0 0 - - -;
#X obj 170 550 t b f;
#X obj 85 551 f;
#X obj 85 605 clip 0 1;
#X obj 170 507 u.invert;
#X obj 85 466 r lPalmYNorm;
#X obj 170 466 r rPalmYNorm;
#X obj 170 486 u.reMapFixed;
#X floatatom 84 531 10 0 0 0 - - -;
#X obj 84 509 u.invert;
#X obj 83 488 u.reMapFixed;
#X connect 0 0 26 0;
#X connect 7 0 16 0;
#X connect 8 0 7 0;
#X connect 11 0 10 0;
#X connect 13 0 12 0;
#X connect 14 0 19 0;
#X connect 15 0 14 0;
#X connect 16 0 22 0;
#X connect 16 1 22 1;
#X connect 17 0 16 1;
#X connect 17 0 16 2;
#X connect 17 0 16 3;
#X connect 17 0 16 4;
#X connect 19 0 6 0;
#X connect 20 0 16 1;
#X connect 20 0 16 2;
#X connect 20 0 16 3;
#X connect 20 0 16 4;
#X connect 21 0 16 4;
#X connect 21 0 16 3;
#X connect 21 0 16 2;
#X connect 21 0 16 1;
#X connect 22 0 23 0;
#X connect 23 0 3 0;
#X connect 24 0 25 0;
#X connect 25 0 21 0;
#X connect 25 1 20 0;
#X connect 25 3 17 0;
#X connect 26 1 7 1;
#X connect 26 2 10 1;
#X connect 26 3 12 1;
#X connect 26 4 14 1;
#X connect 27 0 28 0;
#X connect 28 0 23 1;
#X connect 30 0 35 0;
#X connect 31 0 34 0;
#X connect 32 0 30 0;
#X connect 33 0 31 0;
#X connect 36 0 40 0;
#X connect 37 0 38 0;
#X connect 38 0 39 0;
#X connect 38 1 36 1;
#X connect 39 0 36 0;
#X connect 40 0 27 0;
#X connect 41 0 37 0;
#X connect 42 0 47 0;
#X connect 43 0 44 0;
#X connect 44 0 41 0;
#X connect 45 0 39 0;
#X connect 46 0 45 0;
#X connect 47 0 46 0;
