#N canvas -1792 -15 1792 1067 10;
#X obj 15 155 route palm;
#X obj 15 317 route wrist;
#X obj 101 60 route Right;
#X obj 101 84 s R;
#X obj 213 56 route knuckle joint1 joint2 joint3;
#X obj 213 29 route TYPE_THUMB;
#X floatatom 15 249 5 0 0 0 - - -;
#X floatatom 35 209 5 0 0 0 - - -;
#X floatatom 25 229 5 0 0 0 - - -;
#X floatatom 15 411 5 0 0 0 - - -;
#X floatatom 25 391 5 0 0 0 - - -;
#X floatatom 35 371 5 0 0 0 - - -;
#X floatatom 234 360 5 0 0 0 - - -;
#X floatatom 224 380 5 0 0 0 - - -;
#X floatatom 213 400 5 0 0 0 - - -;
#X obj 213 472 route knuckle joint1 joint2 joint3;
#X obj 213 445 route TYPE_RING;
#X obj 463 472 route knuckle joint1 joint2 joint3;
#X floatatom 463 816 5 0 0 0 - - -;
#X floatatom 484 775 5 0 0 0 - - -;
#X floatatom 474 796 5 0 0 0 - - -;
#X obj 463 445 route TYPE_PINKY;
#X obj 464 56 route knuckle joint1 joint2 joint3;
#X obj 464 334 unpack 0 0 0;
#X obj 514 247 unpack 0 0 0;
#X obj 564 162 unpack 0 0 0;
#X obj 614 75 unpack 0 0 0;
#X obj 714 56 route knuckle joint1 joint2 joint3;
#X obj 464 29 route TYPE_INDEX;
#X obj 714 29 route TYPE_MIDDLE;
#X floatatom 274 293 5 0 0 0 - - -;
#X floatatom 284 272 5 0 0 0 - - -;
#X floatatom 313 228 5 0 0 0 - - -;
#X floatatom 334 188 5 0 0 0 - - -;
#X floatatom 324 208 5 0 0 0 - - -;
#X floatatom 374 121 5 0 0 0 - - -;
#X floatatom 384 101 5 0 0 0 - - -;
#X floatatom 475 380 5 0 0 0 - - -;
#X floatatom 485 360 5 0 0 0 - - -;
#X floatatom 263 313 5 0 0 0 - - -;
#X floatatom 514 313 5 0 0 0 - - -;
#X floatatom 525 293 5 0 0 0 - - -;
#X floatatom 535 273 5 0 0 0 - - -;
#X floatatom 564 228 5 0 0 0 - - -;
#X floatatom 575 208 5 0 0 0 - - -;
#X floatatom 585 188 5 0 0 0 - - -;
#X floatatom 614 141 5 0 0 0 - - -;
#X floatatom 625 121 5 0 0 0 - - -;
#X floatatom 635 101 5 0 0 0 - - -;
#X floatatom 464 400 5 0 0 0 - - -;
#X floatatom 714 400 5 0 0 0 - - -;
#X floatatom 725 380 5 0 0 0 - - -;
#X floatatom 735 360 5 0 0 0 - - -;
#X floatatom 764 313 5 0 0 0 - - -;
#X floatatom 775 293 5 0 0 0 - - -;
#X floatatom 785 273 5 0 0 0 - - -;
#X floatatom 814 228 5 0 0 0 - - -;
#X floatatom 825 208 5 0 0 0 - - -;
#X floatatom 835 188 5 0 0 0 - - -;
#X floatatom 864 141 5 0 0 0 - - -;
#X floatatom 876 120 5 0 0 0 - - -;
#X floatatom 885 101 5 0 0 0 - - -;
#X floatatom 363 141 5 0 0 0 - - -;
#X floatatom 213 816 5 0 0 0 - - -;
#X floatatom 224 796 5 0 0 0 - - -;
#X floatatom 234 775 5 0 0 0 - - -;
#X floatatom 263 729 5 0 0 0 - - -;
#X floatatom 275 709 5 0 0 0 - - -;
#X floatatom 284 689 5 0 0 0 - - -;
#X floatatom 313 644 5 0 0 0 - - -;
#X floatatom 324 624 5 0 0 0 - - -;
#X floatatom 334 604 5 0 0 0 - - -;
#X floatatom 363 557 5 0 0 0 - - -;
#X floatatom 374 537 5 0 0 0 - - -;
#X floatatom 384 517 5 0 0 0 - - -;
#X floatatom 513 729 5 0 0 0 - - -;
#X floatatom 524 709 5 0 0 0 - - -;
#X floatatom 534 689 5 0 0 0 - - -;
#X floatatom 563 644 5 0 0 0 - - -;
#X floatatom 574 624 5 0 0 0 - - -;
#X floatatom 584 604 5 0 0 0 - - -;
#X floatatom 613 557 5 0 0 0 - - -;
#X floatatom 624 537 5 0 0 0 - - -;
#X floatatom 634 517 5 0 0 0 - - -;
#X text 765 744 OSC Data Naming Legend:;
#X text 609 767 handedness + finger initial + jointN + coordinate;
#X text 645 790 Eg: X position of knuckle of the left index;
#X text 711 813 l + I + knuckle + X = lIknuckleX;
#X obj 15 183 unpack 0 0 0;
#X obj 15 345 unpack 0 0 0;
#X obj 213 334 unpack 0 0 0;
#X obj 263 247 unpack 0 0 0;
#X obj 313 162 unpack 0 0 0;
#X obj 363 75 unpack 0 0 0;
#X obj 363 491 unpack 0 0 0;
#X obj 313 578 unpack 0 0 0;
#X obj 263 663 unpack 0 0 0;
#X obj 213 750 unpack 0 0 0;
#X obj 463 750 unpack 0 0 0;
#X obj 513 663 unpack 0 0 0;
#X obj 563 578 unpack 0 0 0;
#X obj 613 491 unpack 0 0 0;
#X obj 714 334 unpack 0 0 0;
#X obj 764 247 unpack 0 0 0;
#X obj 814 162 unpack 0 0 0;
#X obj 864 75 unpack 0 0 0;
#X obj 15 476 route presence;
#X floatatom 15 497 5 0 0 0 - - -;
#X obj 960 6 r R;
#X obj 960 58 route knuckle joint1 joint2 joint3;
#X obj 960 31 route TYPE_THUMB;
#X floatatom 981 362 5 0 0 0 - - -;
#X floatatom 971 382 5 0 0 0 - - -;
#X floatatom 960 402 5 0 0 0 - - -;
#X obj 960 422 r R;
#X obj 960 474 route knuckle joint1 joint2 joint3;
#X obj 960 447 route TYPE_RING;
#X obj 1210 422 r R;
#X obj 1210 474 route knuckle joint1 joint2 joint3;
#X floatatom 1210 818 5 0 0 0 - - -;
#X floatatom 1231 777 5 0 0 0 - - -;
#X floatatom 1221 798 5 0 0 0 - - -;
#X obj 1210 447 route TYPE_PINKY;
#X obj 1211 6 r R;
#X obj 1211 58 route knuckle joint1 joint2 joint3;
#X obj 1211 336 unpack 0 0 0;
#X obj 1261 249 unpack 0 0 0;
#X obj 1311 164 unpack 0 0 0;
#X obj 1361 77 unpack 0 0 0;
#X obj 1461 6 r R;
#X obj 1461 58 route knuckle joint1 joint2 joint3;
#X obj 1211 31 route TYPE_INDEX;
#X obj 1461 31 route TYPE_MIDDLE;
#X floatatom 1021 295 5 0 0 0 - - -;
#X floatatom 1031 274 5 0 0 0 - - -;
#X floatatom 1060 230 5 0 0 0 - - -;
#X floatatom 1081 190 5 0 0 0 - - -;
#X floatatom 1071 210 5 0 0 0 - - -;
#X floatatom 1121 123 5 0 0 0 - - -;
#X floatatom 1131 103 5 0 0 0 - - -;
#X floatatom 1222 382 5 0 0 0 - - -;
#X floatatom 1232 362 5 0 0 0 - - -;
#X floatatom 1010 315 5 0 0 0 - - -;
#X floatatom 1261 315 5 0 0 0 - - -;
#X floatatom 1272 295 5 0 0 0 - - -;
#X floatatom 1282 275 5 0 0 0 - - -;
#X floatatom 1311 230 5 0 0 0 - - -;
#X floatatom 1322 210 5 0 0 0 - - -;
#X floatatom 1332 190 5 0 0 0 - - -;
#X floatatom 1361 143 5 0 0 0 - - -;
#X floatatom 1372 123 5 0 0 0 - - -;
#X floatatom 1382 103 5 0 0 0 - - -;
#X floatatom 1211 402 5 0 0 0 - - -;
#X floatatom 1461 402 5 0 0 0 - - -;
#X floatatom 1472 382 5 0 0 0 - - -;
#X floatatom 1482 362 5 0 0 0 - - -;
#X floatatom 1511 315 5 0 0 0 - - -;
#X floatatom 1522 295 5 0 0 0 - - -;
#X floatatom 1532 275 5 0 0 0 - - -;
#X floatatom 1561 230 5 0 0 0 - - -;
#X floatatom 1572 210 5 0 0 0 - - -;
#X floatatom 1582 190 5 0 0 0 - - -;
#X floatatom 1611 143 5 0 0 0 - - -;
#X floatatom 1623 122 5 0 0 0 - - -;
#X floatatom 1632 103 5 0 0 0 - - -;
#X floatatom 1110 143 5 0 0 0 - - -;
#X floatatom 960 818 5 0 0 0 - - -;
#X floatatom 971 798 5 0 0 0 - - -;
#X floatatom 981 777 5 0 0 0 - - -;
#X floatatom 1010 731 5 0 0 0 - - -;
#X floatatom 1022 711 5 0 0 0 - - -;
#X floatatom 1031 691 5 0 0 0 - - -;
#X floatatom 1060 646 5 0 0 0 - - -;
#X floatatom 1071 626 5 0 0 0 - - -;
#X floatatom 1081 606 5 0 0 0 - - -;
#X floatatom 1110 559 5 0 0 0 - - -;
#X floatatom 1121 539 5 0 0 0 - - -;
#X floatatom 1131 519 5 0 0 0 - - -;
#X floatatom 1260 731 5 0 0 0 - - -;
#X floatatom 1271 711 5 0 0 0 - - -;
#X floatatom 1281 691 5 0 0 0 - - -;
#X floatatom 1310 646 5 0 0 0 - - -;
#X floatatom 1321 626 5 0 0 0 - - -;
#X floatatom 1331 606 5 0 0 0 - - -;
#X floatatom 1360 559 5 0 0 0 - - -;
#X floatatom 1371 539 5 0 0 0 - - -;
#X floatatom 1381 519 5 0 0 0 - - -;
#X obj 960 336 unpack 0 0 0;
#X obj 1010 249 unpack 0 0 0;
#X obj 1060 164 unpack 0 0 0;
#X obj 1110 77 unpack 0 0 0;
#X obj 1110 493 unpack 0 0 0;
#X obj 1060 580 unpack 0 0 0;
#X obj 1010 665 unpack 0 0 0;
#X obj 960 752 unpack 0 0 0;
#X obj 1210 752 unpack 0 0 0;
#X obj 1260 665 unpack 0 0 0;
#X obj 1310 580 unpack 0 0 0;
#X obj 1360 493 unpack 0 0 0;
#X obj 1461 336 unpack 0 0 0;
#X obj 1511 249 unpack 0 0 0;
#X obj 1561 164 unpack 0 0 0;
#X obj 1611 77 unpack 0 0 0;
#X obj 213 4 r L;
#X obj 464 4 r L;
#X obj 714 4 r L;
#X obj 213 420 r L;
#X obj 463 420 r L;
#X obj 15 62 route Left;
#X obj 15 85 s L;
#X obj 98 154 route palm;
#X obj 98 129 r R;
#X floatatom 98 248 5 0 0 0 - - -;
#X floatatom 118 208 5 0 0 0 - - -;
#X floatatom 108 228 5 0 0 0 - - -;
#X obj 98 182 unpack 0 0 0;
#X obj 15 130 r L;
#X obj 103 316 route wrist;
#X obj 103 291 r R;
#X floatatom 103 410 5 0 0 0 - - -;
#X floatatom 113 390 5 0 0 0 - - -;
#X floatatom 123 370 5 0 0 0 - - -;
#X obj 103 344 unpack 0 0 0;
#X obj 15 292 r L;
#X obj 111 451 r R;
#X obj 111 475 route presence;
#X floatatom 111 496 5 0 0 0 - - -;
#X obj 15 452 r L;
#X obj 15 27 u.OSCReceiver;
#X obj 15 4 bng 15 250 50 0 empty empty empty 17 7 0 10 -262144 -1
-1;
#X connect 0 0 88 0;
#X connect 1 0 89 0;
#X connect 2 0 3 0;
#X connect 4 0 90 0;
#X connect 4 1 91 0;
#X connect 4 2 92 0;
#X connect 4 3 93 0;
#X connect 5 0 4 0;
#X connect 15 0 97 0;
#X connect 15 1 96 0;
#X connect 15 2 95 0;
#X connect 15 3 94 0;
#X connect 16 0 15 0;
#X connect 17 0 98 0;
#X connect 17 1 99 0;
#X connect 17 2 100 0;
#X connect 17 3 101 0;
#X connect 21 0 17 0;
#X connect 22 0 23 0;
#X connect 22 1 24 0;
#X connect 22 2 25 0;
#X connect 22 3 26 0;
#X connect 23 0 49 0;
#X connect 23 1 37 0;
#X connect 23 2 38 0;
#X connect 24 0 40 0;
#X connect 24 1 41 0;
#X connect 24 2 42 0;
#X connect 25 0 43 0;
#X connect 25 1 44 0;
#X connect 25 2 45 0;
#X connect 26 0 46 0;
#X connect 26 1 47 0;
#X connect 26 2 48 0;
#X connect 27 0 102 0;
#X connect 27 1 103 0;
#X connect 27 2 104 0;
#X connect 27 3 105 0;
#X connect 28 0 22 0;
#X connect 29 0 27 0;
#X connect 88 0 6 0;
#X connect 88 1 8 0;
#X connect 88 2 7 0;
#X connect 89 0 9 0;
#X connect 89 1 10 0;
#X connect 89 2 11 0;
#X connect 90 0 14 0;
#X connect 90 1 13 0;
#X connect 90 2 12 0;
#X connect 91 0 39 0;
#X connect 91 1 30 0;
#X connect 91 2 31 0;
#X connect 92 0 32 0;
#X connect 92 1 34 0;
#X connect 92 2 33 0;
#X connect 93 0 62 0;
#X connect 93 1 35 0;
#X connect 93 2 36 0;
#X connect 94 0 72 0;
#X connect 94 1 73 0;
#X connect 94 2 74 0;
#X connect 95 0 69 0;
#X connect 95 1 70 0;
#X connect 95 2 71 0;
#X connect 96 0 66 0;
#X connect 96 1 67 0;
#X connect 96 2 68 0;
#X connect 97 0 63 0;
#X connect 97 1 64 0;
#X connect 97 2 65 0;
#X connect 98 0 18 0;
#X connect 98 1 20 0;
#X connect 98 2 19 0;
#X connect 99 0 75 0;
#X connect 99 1 76 0;
#X connect 99 2 77 0;
#X connect 100 0 78 0;
#X connect 100 1 79 0;
#X connect 100 2 80 0;
#X connect 101 0 81 0;
#X connect 101 1 82 0;
#X connect 101 2 83 0;
#X connect 102 0 50 0;
#X connect 102 1 51 0;
#X connect 102 2 52 0;
#X connect 103 0 53 0;
#X connect 103 1 54 0;
#X connect 103 2 55 0;
#X connect 104 0 56 0;
#X connect 104 1 57 0;
#X connect 104 2 58 0;
#X connect 105 0 59 0;
#X connect 105 1 60 0;
#X connect 105 2 61 0;
#X connect 106 0 107 0;
#X connect 108 0 110 0;
#X connect 109 0 187 0;
#X connect 109 1 188 0;
#X connect 109 2 189 0;
#X connect 109 3 190 0;
#X connect 110 0 109 0;
#X connect 114 0 116 0;
#X connect 115 0 194 0;
#X connect 115 1 193 0;
#X connect 115 2 192 0;
#X connect 115 3 191 0;
#X connect 116 0 115 0;
#X connect 117 0 122 0;
#X connect 118 0 195 0;
#X connect 118 1 196 0;
#X connect 118 2 197 0;
#X connect 118 3 198 0;
#X connect 122 0 118 0;
#X connect 123 0 131 0;
#X connect 124 0 125 0;
#X connect 124 1 126 0;
#X connect 124 2 127 0;
#X connect 124 3 128 0;
#X connect 125 0 152 0;
#X connect 125 1 140 0;
#X connect 125 2 141 0;
#X connect 126 0 143 0;
#X connect 126 1 144 0;
#X connect 126 2 145 0;
#X connect 127 0 146 0;
#X connect 127 1 147 0;
#X connect 127 2 148 0;
#X connect 128 0 149 0;
#X connect 128 1 150 0;
#X connect 128 2 151 0;
#X connect 129 0 132 0;
#X connect 130 0 199 0;
#X connect 130 1 200 0;
#X connect 130 2 201 0;
#X connect 130 3 202 0;
#X connect 131 0 124 0;
#X connect 132 0 130 0;
#X connect 187 0 113 0;
#X connect 187 1 112 0;
#X connect 187 2 111 0;
#X connect 188 0 142 0;
#X connect 188 1 133 0;
#X connect 188 2 134 0;
#X connect 189 0 135 0;
#X connect 189 1 137 0;
#X connect 189 2 136 0;
#X connect 190 0 165 0;
#X connect 190 1 138 0;
#X connect 190 2 139 0;
#X connect 191 0 175 0;
#X connect 191 1 176 0;
#X connect 191 2 177 0;
#X connect 192 0 172 0;
#X connect 192 1 173 0;
#X connect 192 2 174 0;
#X connect 193 0 169 0;
#X connect 193 1 170 0;
#X connect 193 2 171 0;
#X connect 194 0 166 0;
#X connect 194 1 167 0;
#X connect 194 2 168 0;
#X connect 195 0 119 0;
#X connect 195 1 121 0;
#X connect 195 2 120 0;
#X connect 196 0 178 0;
#X connect 196 1 179 0;
#X connect 196 2 180 0;
#X connect 197 0 181 0;
#X connect 197 1 182 0;
#X connect 197 2 183 0;
#X connect 198 0 184 0;
#X connect 198 1 185 0;
#X connect 198 2 186 0;
#X connect 199 0 153 0;
#X connect 199 1 154 0;
#X connect 199 2 155 0;
#X connect 200 0 156 0;
#X connect 200 1 157 0;
#X connect 200 2 158 0;
#X connect 201 0 159 0;
#X connect 201 1 160 0;
#X connect 201 2 161 0;
#X connect 202 0 162 0;
#X connect 202 1 163 0;
#X connect 202 2 164 0;
#X connect 203 0 5 0;
#X connect 204 0 28 0;
#X connect 205 0 29 0;
#X connect 206 0 16 0;
#X connect 207 0 21 0;
#X connect 208 0 209 0;
#X connect 210 0 215 0;
#X connect 211 0 210 0;
#X connect 215 0 212 0;
#X connect 215 1 214 0;
#X connect 215 2 213 0;
#X connect 216 0 0 0;
#X connect 217 0 222 0;
#X connect 218 0 217 0;
#X connect 222 0 219 0;
#X connect 222 1 220 0;
#X connect 222 2 221 0;
#X connect 223 0 1 0;
#X connect 224 0 225 0;
#X connect 225 0 226 0;
#X connect 227 0 106 0;
#X connect 228 0 208 0;
#X connect 228 0 2 0;
#X connect 229 0 228 0;
