#N canvas 390 373 450 300 10;
#X obj 189 129 cputime;
#X obj 189 150 int;
#X obj 189 171 * 0.1;
#X obj 158 109 tgl 15 0 empty empty empty 17 7 0 10 -262144 -1 -1 0
1;
#X floatatom 111 137 10 0 0 0 - - -, f 10;
#X obj 189 103 t b b;
#X obj 189 81 metro 500;
#X obj 110 118 cnv 5 5 5 empty empty CPU_% 0 0 0 12 -262144 -66577
0;
#X connect 0 0 1 0;
#X connect 1 0 2 0;
#X connect 2 0 4 0;
#X connect 3 0 6 0;
#X connect 5 0 0 0;
#X connect 5 1 0 1;
#X connect 6 0 5 0;
#X coords 0 -1 1 1 85 60 2 100 100;
