#N canvas 782 407 450 300 10;
#X obj 97 7 inlet;
#X text 3 6 Outlet Selector;
#X obj 247 7 inlet;
#X text 183 6 Data Inlet;
#X obj 6 130 spigot 0;
#X obj 63 130 spigot 0;
#X obj 120 130 spigot 0;
#X obj 177 130 spigot 0;
#X obj 233 130 spigot 0;
#N canvas 0 23 450 300 (subpatch) 0;
#X obj 5 7 inlet;
#X obj 5 75 outlet;
#X msg 5 51 1;
#X msg 49 51 0;
#X obj 49 75 outlet;
#X obj 5 28 t b;
#X connect 0 0 5 0;
#X connect 2 0 1 0;
#X connect 3 0 4 0;
#X connect 5 0 2 0;
#X connect 5 0 3 0;
#X restore 97 63 pd 1;
#N canvas 0 23 450 300 (subpatch) 0;
#X obj 5 7 inlet;
#X obj 5 75 outlet;
#X msg 5 51 1;
#X msg 49 51 0;
#X obj 49 75 outlet;
#X obj 5 28 t b;
#X connect 0 0 5 0;
#X connect 2 0 1 0;
#X connect 3 0 4 0;
#X connect 5 0 2 0;
#X connect 5 0 3 0;
#X restore 129 63 pd 2;
#N canvas 0 23 450 300 (subpatch) 0;
#X obj 5 7 inlet;
#X obj 5 75 outlet;
#X msg 5 51 1;
#X msg 49 51 0;
#X obj 49 75 outlet;
#X obj 5 28 t b;
#X connect 0 0 5 0;
#X connect 2 0 1 0;
#X connect 3 0 4 0;
#X connect 5 0 2 0;
#X connect 5 0 3 0;
#X restore 160 63 pd 3;
#N canvas 0 23 450 300 (subpatch) 0;
#X obj 5 7 inlet;
#X obj 5 75 outlet;
#X msg 5 51 1;
#X msg 49 51 0;
#X obj 49 75 outlet;
#X obj 5 28 t b;
#X connect 0 0 5 0;
#X connect 2 0 1 0;
#X connect 3 0 4 0;
#X connect 5 0 2 0;
#X connect 5 0 3 0;
#X restore 192 63 pd 4;
#N canvas 0 23 450 300 (subpatch) 0;
#X obj 5 7 inlet;
#X obj 5 75 outlet;
#X msg 5 51 1;
#X msg 49 51 0;
#X obj 49 75 outlet;
#X obj 5 28 t b;
#X connect 0 0 5 0;
#X connect 2 0 1 0;
#X connect 3 0 4 0;
#X connect 5 0 2 0;
#X connect 5 0 3 0;
#X restore 223 63 pd 5;
#X obj 6 151 outlet;
#X obj 63 151 outlet;
#X obj 120 151 outlet;
#X obj 177 151 outlet;
#X obj 233 151 outlet;
#X obj 97 29 route 0 1 2 3 4;
#X connect 0 0 19 0;
#X connect 2 0 4 0;
#X connect 2 0 5 0;
#X connect 2 0 6 0;
#X connect 2 0 7 0;
#X connect 2 0 8 0;
#X connect 4 0 14 0;
#X connect 5 0 15 0;
#X connect 6 0 16 0;
#X connect 7 0 17 0;
#X connect 8 0 18 0;
#X connect 9 0 4 1;
#X connect 9 1 5 1;
#X connect 9 1 6 1;
#X connect 9 1 7 1;
#X connect 9 1 8 1;
#X connect 10 0 5 1;
#X connect 10 1 4 1;
#X connect 10 1 6 1;
#X connect 10 1 7 1;
#X connect 10 1 8 1;
#X connect 11 0 6 1;
#X connect 11 1 4 1;
#X connect 11 1 5 1;
#X connect 11 1 7 1;
#X connect 11 1 8 1;
#X connect 12 0 7 1;
#X connect 12 1 4 1;
#X connect 12 1 5 1;
#X connect 12 1 6 1;
#X connect 12 1 8 1;
#X connect 13 0 8 1;
#X connect 13 1 7 1;
#X connect 13 1 6 1;
#X connect 13 1 5 1;
#X connect 13 1 4 1;
#X connect 19 0 9 0;
#X connect 19 1 10 0;
#X connect 19 2 11 0;
#X connect 19 3 12 0;
#X connect 19 4 13 0;
