#N canvas 0 23 1440 855 10;
#X obj 6 8 inlet;
#X obj 6 106 route palm;
#X obj 6 276 route wrist;
#X obj 213 56 route knuckle joint1 joint2 joint3;
#X obj 213 29 route TYPE_THUMB;
#X obj 213 472 route knuckle joint1 joint2 joint3;
#X obj 213 445 route TYPE_RING;
#X obj 463 472 route knuckle joint1 joint2 joint3;
#X obj 463 445 route TYPE_PINKY;
#X obj 464 56 route knuckle joint1 joint2 joint3;
#X obj 714 56 route knuckle joint1 joint2 joint3;
#X obj 464 29 route TYPE_INDEX;
#X obj 714 29 route TYPE_MIDDLE;
#X obj 6 32 route Left;
#X obj 6 56 s L;
#X obj 6 81 r L;
#X obj 6 251 r L;
#X obj 213 4 r L;
#X obj 464 4 r L;
#X obj 714 4 r L;
#X obj 213 420 r L;
#X obj 463 420 r L;
#X obj 6 200 s lPalmX;
#X obj 16 180 s lPalmY;
#X obj 26 160 s lPalmZ;
#X obj 6 370 s lWristX;
#X obj 16 350 s lWristY;
#X obj 26 330 s lWristZ;
#X obj 384 102 s lTjoint3Z;
#X obj 374 121 s lTjoint3Y;
#X obj 363 141 s lTjoint3X;
#X obj 334 188 s lTjoint2Z;
#X obj 324 208 s lTjoint2Y;
#X obj 313 228 s lTjoint2X;
#X obj 284 272 s lTjoint1Z;
#X obj 274 293 s lTjoint1Y;
#X obj 263 313 s lTjoint1X;
#X obj 234 360 s lTknuckleZ;
#X obj 224 380 s lTknuckleY;
#X obj 213 400 s lTknuckleX;
#X obj 635 101 s lIjoint3X;
#X obj 625 121 s lIjoint3Y;
#X obj 614 141 s lIjoint3X;
#X obj 585 188 s lIjoint2Z;
#X obj 575 208 s lIjoint2Y;
#X obj 564 228 s lIjoint2X;
#X obj 535 273 s lIjoint1Z;
#X obj 525 293 s lIjoint1Y;
#X obj 514 313 s lIjoint1X;
#X obj 485 360 s lIknuckleZ;
#X obj 475 380 s lIknuckleY;
#X obj 464 400 s lIknuckleX;
#X obj 885 101 s lMjoint3Z;
#X obj 876 120 s lMjoint3Y;
#X obj 864 141 s lMjoint3X;
#X obj 835 188 s lMjoint2Z;
#X obj 825 208 s lMjoint2Y;
#X obj 814 228 s lMjoint2X;
#X obj 785 273 s lMjoint1Z;
#X obj 775 293 s lMjoint1Y;
#X obj 764 313 s lMjoint1X;
#X obj 735 360 s lMknuckleZ;
#X obj 725 380 s lMknuckleY;
#X obj 714 400 s lMknuckleX;
#X obj 634 517 s lPjoint3Z;
#X obj 624 537 s lPjoint3Y;
#X obj 613 557 s lPjoint3X;
#X obj 584 604 s lPjoint2Z;
#X obj 574 624 s lPjoint2Y;
#X obj 563 644 s lPjoint2X;
#X obj 534 689 s lPjoint1Z;
#X obj 524 709 s lPjoint1Y;
#X obj 513 729 s lPjoint1X;
#X obj 483 775 s lPknuckleZ;
#X obj 474 796 s lPknuckleY;
#X obj 463 816 s lPknuckleX;
#X obj 213 816 s lRknuckleX;
#X obj 224 796 s lRknuckleY;
#X obj 234 775 s lRknuckleZ;
#X obj 263 729 s lRjoint1X;
#X obj 275 709 s lRjoint1Y;
#X obj 284 689 s lRjoint1Z;
#X obj 313 644 s lRjoint2X;
#X obj 324 624 s lRjoint2Y;
#X obj 334 604 s lRjoint2Z;
#X obj 363 557 s lRjoint3X;
#X obj 374 537 s lRjoint3Y;
#X obj 384 517 s lRjoint3Z;
#X text 1230 24 OSC Data Naming Legend:;
#X text 1074 37 handedness + finger initial + jointN + coordinate;
#X text 1110 50 Eg: X position of knuckle of the left index;
#X text 1176 63 l + I + knuckle + X = lIknuckleX;
#X obj 6 134 unpack 0 0 0;
#X obj 6 304 unpack 0 0 0;
#X obj 213 334 unpack 0 0 0;
#X obj 263 247 unpack 0 0 0;
#X obj 313 162 unpack 0 0 0;
#X obj 363 75 unpack 0 0 0;
#X obj 363 491 unpack 0 0 0;
#X obj 313 578 unpack 0 0 0;
#X obj 263 662 unpack 0 0 0;
#X obj 213 750 unpack 0 0 0;
#X obj 463 750 unpack 0 0 0;
#X obj 513 663 unpack 0 0 0;
#X obj 563 578 unpack 0 0 0;
#X obj 613 491 unpack 0 0 0;
#X obj 464 334 unpack 0 0 0;
#X obj 514 247 unpack 0 0 0;
#X obj 564 162 unpack 0 0 0;
#X obj 614 75 unpack 0 0 0;
#X obj 714 334 unpack 0 0 0;
#X obj 764 247 unpack 0 0 0;
#X obj 814 162 unpack 0 0 0;
#X obj 864 75 unpack 0 0 0;
#X obj 6 447 route presence;
#X floatatom 6 468 5 0 0 0 - - -, f 5;
#X obj 6 423 r L;
#X obj 6 488 s lPresence;
#X connect 0 0 13 0;
#X connect 1 0 92 0;
#X connect 2 0 93 0;
#X connect 3 0 94 0;
#X connect 3 1 95 0;
#X connect 3 2 96 0;
#X connect 3 3 97 0;
#X connect 4 0 3 0;
#X connect 5 0 101 0;
#X connect 5 1 100 0;
#X connect 5 2 99 0;
#X connect 5 3 98 0;
#X connect 6 0 5 0;
#X connect 7 0 102 0;
#X connect 7 1 103 0;
#X connect 7 2 104 0;
#X connect 7 3 105 0;
#X connect 8 0 7 0;
#X connect 9 0 106 0;
#X connect 9 1 107 0;
#X connect 9 2 108 0;
#X connect 9 3 109 0;
#X connect 10 0 110 0;
#X connect 10 1 111 0;
#X connect 10 2 112 0;
#X connect 10 3 113 0;
#X connect 11 0 9 0;
#X connect 12 0 10 0;
#X connect 13 0 14 0;
#X connect 15 0 1 0;
#X connect 16 0 2 0;
#X connect 17 0 4 0;
#X connect 18 0 11 0;
#X connect 19 0 12 0;
#X connect 20 0 6 0;
#X connect 21 0 8 0;
#X connect 92 0 22 0;
#X connect 92 1 23 0;
#X connect 92 2 24 0;
#X connect 93 0 25 0;
#X connect 93 1 26 0;
#X connect 93 2 27 0;
#X connect 94 0 39 0;
#X connect 94 1 38 0;
#X connect 94 2 37 0;
#X connect 95 0 36 0;
#X connect 95 1 35 0;
#X connect 95 2 34 0;
#X connect 96 0 33 0;
#X connect 96 1 32 0;
#X connect 96 2 31 0;
#X connect 97 0 30 0;
#X connect 97 1 29 0;
#X connect 97 2 28 0;
#X connect 98 0 85 0;
#X connect 98 1 86 0;
#X connect 98 2 87 0;
#X connect 99 0 82 0;
#X connect 99 1 83 0;
#X connect 99 2 84 0;
#X connect 100 0 79 0;
#X connect 100 1 80 0;
#X connect 100 2 81 0;
#X connect 101 0 76 0;
#X connect 101 1 77 0;
#X connect 101 2 78 0;
#X connect 102 0 75 0;
#X connect 102 1 74 0;
#X connect 102 2 73 0;
#X connect 103 0 72 0;
#X connect 103 1 71 0;
#X connect 103 2 70 0;
#X connect 104 0 69 0;
#X connect 104 1 68 0;
#X connect 104 2 67 0;
#X connect 105 0 66 0;
#X connect 105 1 65 0;
#X connect 105 2 64 0;
#X connect 106 0 51 0;
#X connect 106 1 50 0;
#X connect 106 2 49 0;
#X connect 107 0 48 0;
#X connect 107 1 47 0;
#X connect 107 2 46 0;
#X connect 108 0 45 0;
#X connect 108 1 44 0;
#X connect 108 2 43 0;
#X connect 109 0 42 0;
#X connect 109 1 41 0;
#X connect 109 2 40 0;
#X connect 110 0 63 0;
#X connect 110 1 62 0;
#X connect 110 2 61 0;
#X connect 111 0 60 0;
#X connect 111 1 59 0;
#X connect 111 2 58 0;
#X connect 112 0 57 0;
#X connect 112 1 56 0;
#X connect 112 2 55 0;
#X connect 113 0 54 0;
#X connect 113 1 53 0;
#X connect 113 2 52 0;
#X connect 114 0 115 0;
#X connect 115 0 117 0;
#X connect 116 0 114 0;
