#N canvas 875 57 132 161 10;
#X obj 5 51 netreceive -u -b;
#X obj 5 76 oscparse;
#X obj 5 104 list trim;
#X obj 5 1 inlet;
#X obj 5 125 outlet;
#X msg 5 26 listen 5678;
#X connect 0 0 1 0;
#X connect 1 0 2 0;
#X connect 2 0 4 0;
#X connect 3 0 5 0;
#X connect 5 0 0 0;
