#N canvas 570 294 728 520 10;
#X obj 31 382 expr $f4 + ($f1 - $f2) * ($f5 - $f4) / ($f3 - $f2),
f 62;
#X obj 30 105 inlet;
#X obj 31 475 outlet;
#X obj 320 101 inlet;
#X obj 320 122 sel 0 1 2;
#X text 42 405 input - low1 - high1 - low2 - high2;
#X floatatom 122 210 5 0 0 0 - - -;
#X floatatom 214 212 5 0 0 0 - - -;
#X floatatom 306 211 5 0 0 0 - - -;
#X floatatom 399 212 5 0 0 0 - - -;
#X msg 429 180 10;
#X msg 398 181 5;
#X obj 117 106 loadbang;
#X obj 528 106 r resting;
#X obj 31 357 moses;
#X obj 530 275 +;
#X floatatom 530 296 5 0 0 0 - - -;
#X obj 530 275 +;
#X floatatom 530 296 5 0 0 0 - - -;
#X obj 580 257 bng 15 250 50 0 empty empty empty 17 7 0 10 -262144
-1 -1;
#X msg 212 180 0;
#X msg 306 180 1;
#X msg 365 180 0;
#X msg 123 180 1;
#X obj 436 322 + 0.07;
#X obj 631 218 r spaceThresh;
#X obj 631 243 - 0.05;
#X floatatom 631 264 5 0 0 0 - - -;
#X obj 530 317 + 0;
#X obj 631 284 t b f;
#X connect 0 0 2 0;
#X connect 1 0 14 0;
#X connect 1 0 15 1;
#X connect 3 0 4 0;
#X connect 4 0 21 0;
#X connect 4 0 22 0;
#X connect 4 1 11 0;
#X connect 4 2 10 0;
#X connect 6 0 0 1;
#X connect 7 0 0 2;
#X connect 8 0 0 3;
#X connect 9 0 0 4;
#X connect 10 0 9 0;
#X connect 11 0 9 0;
#X connect 12 0 23 0;
#X connect 12 0 20 0;
#X connect 13 0 15 0;
#X connect 14 0 0 0;
#X connect 15 0 16 0;
#X connect 16 0 28 0;
#X connect 17 0 18 0;
#X connect 19 0 15 0;
#X connect 20 0 7 0;
#X connect 21 0 8 0;
#X connect 22 0 9 0;
#X connect 23 0 6 0;
#X connect 24 0 14 1;
#X connect 25 0 26 0;
#X connect 26 0 27 0;
#X connect 27 0 29 0;
#X connect 28 0 24 0;
#X connect 28 0 6 0;
#X connect 29 0 28 0;
#X connect 29 1 28 1;
