#N canvas 422 383 450 300 10;
#X obj 30 152 expr $f4 + ($f1 - $f2) * ($f5 - $f4) / ($f3 - $f2),
f 62;
#X obj 29 15 inlet;
#X obj 30 265 outlet;
#X obj 319 11 inlet;
#X obj 319 32 sel 0 1 2;
#X text 41 175 input - low1 - high1 - low2 - high2;
#X floatatom 121 120 5 0 0 0 - - -;
#X floatatom 213 122 5 0 0 0 - - -;
#X floatatom 305 121 5 0 0 0 - - -;
#X floatatom 398 122 5 0 0 0 - - -;
#X msg 122 90 0;
#X msg 211 89 1;
#X msg 305 91 0;
#X msg 364 90 1;
#X msg 428 90 10;
#X msg 397 91 5;
#X obj 116 16 loadbang;
#X connect 0 0 2 0;
#X connect 1 0 0 0;
#X connect 3 0 4 0;
#X connect 4 0 12 0;
#X connect 4 0 13 0;
#X connect 4 1 15 0;
#X connect 4 2 14 0;
#X connect 6 0 0 1;
#X connect 7 0 0 2;
#X connect 8 0 0 3;
#X connect 9 0 0 4;
#X connect 10 0 6 0;
#X connect 11 0 7 0;
#X connect 12 0 8 0;
#X connect 13 0 9 0;
#X connect 14 0 9 0;
#X connect 15 0 9 0;
#X connect 16 0 10 0;
#X connect 16 0 11 0;
