#N canvas 0 23 485 227 10;
#X floatatom 9 173 5 0 0 0 - - -, f 5;
#X obj 9 7 inlet;
#X obj 9 201 outlet;
#X obj 9 108 moses;
#X obj 390 57 +;
#X floatatom 390 79 5 0 0 0 - - -, f 5;
#X obj 9 141 expr 0 + ($f1 - $f2) * (1 - ($f2 - 0.03)) / (($f2 - 0.03)
- $f2), f 64;
#X obj 390 5 inlet;
#X connect 0 0 2 0;
#X connect 1 0 3 0;
#X connect 1 0 4 1;
#X connect 3 0 6 0;
#X connect 4 0 5 0;
#X connect 5 0 3 1;
#X connect 5 0 6 1;
#X connect 6 0 0 0;
#X connect 7 0 4 0;
