#N canvas 0 23 1440 855 10;
#X obj 6 8 inlet;
#X obj 6 126 route palm;
#X obj 6 288 route wrist;
#X obj 6 32 route Right;
#X obj 6 56 s R;
#X obj 6 101 r R;
#X obj 6 263 r R;
#X obj 213 4 r R;
#X obj 213 56 route knuckle joint1 joint2 joint3;
#X obj 213 29 route TYPE_THUMB;
#X obj 6 220 s rPalmX;
#X obj 26 180 s rPalmZ;
#X obj 16 200 s rPalmY;
#X obj 6 382 s rWristX;
#X obj 16 362 s rWristY;
#X obj 26 342 s rWristZ;
#X obj 234 360 s rTknuckleZ;
#X obj 224 380 s rTknuckleY;
#X obj 213 400 s rTknuckleX;
#X obj 213 420 r R;
#X obj 213 472 route knuckle joint1 joint2 joint3;
#X obj 213 445 route TYPE_RING;
#X obj 463 420 r R;
#X obj 463 472 route knuckle joint1 joint2 joint3;
#X obj 463 816 s rPknuckleX;
#X obj 484 775 s rPknuckleZ;
#X obj 474 796 s rPknuckleY;
#X obj 463 445 route TYPE_PINKY;
#X obj 464 4 r R;
#X obj 464 56 route knuckle joint1 joint2 joint3;
#X obj 464 334 route x y z;
#X obj 514 247 route x y z;
#X obj 564 162 route x y z;
#X obj 614 75 route x y z;
#X obj 714 4 r R;
#X obj 714 56 route knuckle joint1 joint2 joint3;
#X obj 464 29 route TYPE_INDEX;
#X obj 714 29 route TYPE_MIDDLE;
#X obj 274 293 s rTjoint1Y;
#X obj 284 272 s rTjoint1Z;
#X obj 313 228 s rTjoint2X;
#X obj 334 188 s rTjoint2Z;
#X obj 324 208 s rTjoint2Y;
#X obj 374 121 s rTjoint3Y;
#X obj 384 101 s rTjoint3Z;
#X obj 475 380 s rIknuckleY;
#X obj 485 360 s rIknuckleZ;
#X obj 263 313 s rTjoint1X;
#X obj 514 313 s rIjoint1X;
#X obj 525 293 s rIjoint1Y;
#X obj 535 273 s rIjoint1Z;
#X obj 564 228 s rIjoint2X;
#X obj 575 208 s rIjoint2Y;
#X obj 585 188 s rIjoint2Z;
#X obj 614 141 s rIjoint3X;
#X obj 625 121 s rIjoint3Y;
#X obj 635 101 s rIjoint3X;
#X obj 464 400 s rIknuckleX;
#X obj 714 400 s rMknuckleX;
#X obj 725 380 s rMknuckleY;
#X obj 735 360 s rMknuckleZ;
#X obj 764 313 s rMjoint1X;
#X obj 775 293 s rMjoint1Y;
#X obj 785 273 s rMjoint1Z;
#X obj 814 228 s rMjoint2X;
#X obj 825 208 s rMjoint2Y;
#X obj 835 188 s rMjoint2Z;
#X obj 864 141 s rMjoint3X;
#X obj 876 120 s rMjoint3Y;
#X obj 885 101 s rMjoint3Z;
#X obj 363 141 s rTjoint3X;
#X obj 213 816 s rRknuckleX;
#X obj 224 796 s rRknuckleY;
#X obj 234 775 s rRknuckleZ;
#X obj 263 729 s rRjoint1X;
#X obj 275 709 s rRjoint1Y;
#X obj 284 689 s rRjoint1Z;
#X obj 313 644 s rRjoint2X;
#X obj 324 624 s rRjoint2Y;
#X obj 334 604 s rRjoint2Z;
#X obj 363 557 s rRjoint3X;
#X obj 374 537 s rRjoint3Y;
#X obj 384 517 s rRjoint3Z;
#X obj 513 729 s rPjoint1X;
#X obj 524 709 s rPjoint1Y;
#X obj 534 689 s rPjoint1Z;
#X obj 563 644 s rPjoint2X;
#X obj 574 624 s rPjoint2Y;
#X obj 584 604 s rPjoint2Z;
#X obj 613 557 s rPjoint3X;
#X obj 624 537 s rPjoint3Y;
#X obj 634 517 s rPjoint3Z;
#X text 1230 24 OSC Data Naming Legend:;
#X text 1074 47 handedness + finger initial + jointN + coordinate;
#X text 1110 70 Eg: X position of knuckle of the left index;
#X text 1176 93 l + I + knuckle + X = lIknuckleX;
#X obj 6 154 unpack 0 0 0;
#X obj 6 316 unpack 0 0 0;
#X obj 213 334 unpack 0 0 0;
#X obj 263 247 unpack 0 0 0;
#X obj 313 162 unpack 0 0 0;
#X obj 363 75 unpack 0 0 0;
#X obj 363 491 unpack 0 0 0;
#X obj 313 578 unpack 0 0 0;
#X obj 263 663 unpack 0 0 0;
#X obj 213 750 unpack 0 0 0;
#X obj 463 750 unpack 0 0 0;
#X obj 513 663 unpack 0 0 0;
#X obj 563 578 unpack 0 0 0;
#X obj 613 491 unpack 0 0 0;
#X obj 714 334 unpack 0 0 0;
#X obj 764 247 unpack 0 0 0;
#X obj 814 162 unpack 0 0 0;
#X obj 864 75 unpack 0 0 0;
#X obj 6 423 r R;
#X obj 6 447 route presence;
#X floatatom 6 468 5 0 0 0 - - -, f 5;
#X obj 6 488 s rPresence;
#X connect 0 0 3 0;
#X connect 1 0 96 0;
#X connect 2 0 97 0;
#X connect 3 0 4 0;
#X connect 5 0 1 0;
#X connect 6 0 2 0;
#X connect 7 0 9 0;
#X connect 8 0 98 0;
#X connect 8 1 99 0;
#X connect 8 2 100 0;
#X connect 8 3 101 0;
#X connect 9 0 8 0;
#X connect 19 0 21 0;
#X connect 20 0 105 0;
#X connect 20 1 104 0;
#X connect 20 2 103 0;
#X connect 20 3 102 0;
#X connect 21 0 20 0;
#X connect 22 0 27 0;
#X connect 23 0 106 0;
#X connect 23 1 107 0;
#X connect 23 2 108 0;
#X connect 23 3 109 0;
#X connect 27 0 23 0;
#X connect 28 0 36 0;
#X connect 29 0 30 0;
#X connect 29 1 31 0;
#X connect 29 2 32 0;
#X connect 29 3 33 0;
#X connect 30 0 57 0;
#X connect 30 1 45 0;
#X connect 30 2 46 0;
#X connect 31 0 48 0;
#X connect 31 1 49 0;
#X connect 31 2 50 0;
#X connect 32 0 51 0;
#X connect 32 1 52 0;
#X connect 32 2 53 0;
#X connect 33 0 54 0;
#X connect 33 1 55 0;
#X connect 33 2 56 0;
#X connect 34 0 37 0;
#X connect 35 0 110 0;
#X connect 35 1 111 0;
#X connect 35 2 112 0;
#X connect 35 3 113 0;
#X connect 36 0 29 0;
#X connect 37 0 35 0;
#X connect 96 0 10 0;
#X connect 96 1 12 0;
#X connect 96 2 11 0;
#X connect 97 0 13 0;
#X connect 97 1 14 0;
#X connect 97 2 15 0;
#X connect 98 0 18 0;
#X connect 98 1 17 0;
#X connect 98 2 16 0;
#X connect 99 0 47 0;
#X connect 99 1 38 0;
#X connect 99 2 39 0;
#X connect 100 0 40 0;
#X connect 100 1 42 0;
#X connect 100 2 41 0;
#X connect 101 0 70 0;
#X connect 101 1 43 0;
#X connect 101 2 44 0;
#X connect 102 0 80 0;
#X connect 102 1 81 0;
#X connect 102 2 82 0;
#X connect 103 0 77 0;
#X connect 103 1 78 0;
#X connect 103 2 79 0;
#X connect 104 0 74 0;
#X connect 104 1 75 0;
#X connect 104 2 76 0;
#X connect 105 0 71 0;
#X connect 105 1 72 0;
#X connect 105 2 73 0;
#X connect 106 0 24 0;
#X connect 106 1 26 0;
#X connect 106 2 25 0;
#X connect 107 0 83 0;
#X connect 107 1 84 0;
#X connect 107 2 85 0;
#X connect 108 0 86 0;
#X connect 108 1 87 0;
#X connect 108 2 88 0;
#X connect 109 0 89 0;
#X connect 109 1 90 0;
#X connect 109 2 91 0;
#X connect 110 0 58 0;
#X connect 110 1 59 0;
#X connect 110 2 60 0;
#X connect 111 0 61 0;
#X connect 111 1 62 0;
#X connect 111 2 63 0;
#X connect 112 0 64 0;
#X connect 112 1 65 0;
#X connect 112 2 66 0;
#X connect 113 0 67 0;
#X connect 113 1 68 0;
#X connect 113 2 69 0;
#X connect 114 0 115 0;
#X connect 115 0 116 0;
#X connect 116 0 117 0;
